<?xml version="1.0" encoding="UTF-8" standalone="no"?>
<!DOCTYPE svg PUBLIC "-//W3C//DTD SVG 1.1//EN" "http://www.w3.org/Graphics/SVG/1.1/DTD/svg11.dtd">
<!-- Created with Vectornator (http://vectornator.io/) -->
<svg height="100%" stroke-miterlimit="10" style="fill-rule:nonzero;clip-rule:evenodd;stroke-linecap:round;stroke-linejoin:round;" version="1.1" viewBox="0 0 80 57.2562" width="100%" xml:space="preserve" xmlns="http://www.w3.org/2000/svg" xmlns:vectornator="http://vectornator.io" xmlns:xlink="http://www.w3.org/1999/xlink">
<defs/>
<g id="Слой-1" vectornator:layerName="Слой 1">
<path d="M6.13593 5.89796L73.8641 5.89796L73.8641 50.8474L6.13593 50.8474L6.13593 5.89796Z" fill="#ffffff" fill-rule="nonzero" opacity="1" stroke="#7a67e0" stroke-linecap="butt" stroke-linejoin="round" stroke-width="8.37261" vectornator:layerName="Прямоугольник 1"/>
<path d="M44.0767 29.1497C44.0767 26.6841 43.7195 24.7788 43.005 23.4339C42.2905 22.0891 41.2748 21.4166 39.958 21.4166C38.6411 21.4166 37.6394 22.0891 36.953 23.4339C36.2665 24.7788 35.9233 26.6841 35.9233 29.1497C35.9233 31.6154 36.2665 33.5276 36.953 34.8865C37.6394 36.2454 38.6411 36.9249 39.958 36.9249C41.2748 36.9249 42.2905 36.2454 43.005 34.8865C43.7195 33.5276 44.0767 31.6154 44.0767 29.1497ZM51.2635 29.1497C51.2635 31.3072 50.9833 33.2264 50.4229 34.9076C49.8625 36.5887 49.085 37.9966 48.0904 39.1314C47.0957 40.2661 45.9049 41.1277 44.518 41.7161C43.1311 42.3045 41.6251 42.5987 40 42.5987C38.3469 42.5987 36.8269 42.3045 35.44 41.7161C34.0531 41.1277 32.8623 40.2661 31.8676 39.1314C30.8729 37.9966 30.1024 36.5887 29.5561 34.9076C29.0097 33.2264 28.7365 31.3072 28.7365 29.1497C28.7365 26.9923 29.0097 25.08 29.5561 23.4129C30.1024 21.7458 30.8729 20.3449 31.8676 19.2101C32.8623 18.0754 34.0531 17.2138 35.44 16.6254C36.8269 16.037 38.3469 15.7428 40 15.7428C41.6251 15.7428 43.1311 16.037 44.518 16.6254C45.9049 17.2138 47.0957 18.0754 48.0904 19.2101C49.085 20.3449 49.8625 21.7458 50.4229 23.4129C50.9833 25.08 51.2635 26.9923 51.2635 29.1497Z" fill="#7a67e0" opacity="1" stroke="none" vectornator:layerName="Текст 1"/>
</g>
</svg>
