<?xml version="1.0" encoding="UTF-8" standalone="no"?>
<!DOCTYPE svg PUBLIC "-//W3C//DTD SVG 1.1//EN" "http://www.w3.org/Graphics/SVG/1.1/DTD/svg11.dtd">
<!-- Created with Vectornator (http://vectornator.io/) -->
<svg height="100%" stroke-miterlimit="10" style="fill-rule:nonzero;clip-rule:evenodd;stroke-linecap:round;stroke-linejoin:round;" version="1.1" viewBox="0 0 80 57.2562" width="100%" xml:space="preserve" xmlns="http://www.w3.org/2000/svg" xmlns:vectornator="http://vectornator.io" xmlns:xlink="http://www.w3.org/1999/xlink">
<defs/>
<g id="Слой-1" vectornator:layerName="Слой 1">
<path d="M6.13593 5.89796L73.8641 5.89796L73.8641 50.8474L6.13593 50.8474L6.13593 5.89796Z" fill="#ffffff" fill-rule="nonzero" opacity="1" stroke="#7a67e0" stroke-linecap="butt" stroke-linejoin="round" stroke-width="8.37261" vectornator:layerName="Прямоугольник 1"/>
<path d="M48.5737 19.4833C48.5737 20.0717 48.4406 20.6391 48.1744 21.1855C47.9082 21.7318 47.593 22.1451 47.2288 22.4253C46.4723 22.0891 45.6808 21.8299 44.8542 21.6478C44.0277 21.4656 43.2642 21.3746 42.5637 21.3746C40.8826 21.3746 39.5867 21.8159 38.6761 22.6985C37.7655 23.581 37.1561 24.8489 36.8479 26.502C37.4083 26.1097 38.1508 25.7525 39.0754 25.4303C40 25.1081 40.9526 24.947 41.9333 24.947C44.511 24.947 46.5634 25.6894 48.0904 27.1744C49.6174 28.6594 50.3809 30.7888 50.3809 33.5627C50.3809 34.7675 50.1707 35.9162 49.7505 37.009C49.3302 38.1017 48.6998 39.0613 47.8592 39.8879C47.0187 40.7144 45.975 41.3728 44.7281 41.8632C43.4813 42.3535 42.0313 42.5987 40.3783 42.5987C37.0721 42.5987 34.4733 41.4919 32.5821 39.2785C30.6908 37.065 29.7452 33.9129 29.7452 29.8222C29.7452 27.4966 30.0324 25.4513 30.6068 23.6861C31.1811 21.9209 31.9937 20.45 33.0444 19.2732C34.0951 18.0964 35.3489 17.2138 36.8059 16.6254C38.2628 16.037 39.8739 15.7428 41.6391 15.7428C43.8806 15.7428 45.5967 16.051 46.7875 16.6675C47.9783 17.2839 48.5737 18.2225 48.5737 19.4833ZM40.3362 30.4106C39.8039 30.4106 39.2365 30.5227 38.6341 30.7468C38.0317 30.9709 37.5484 31.2792 37.1841 31.6714L37.1841 32.7221C37.1841 34.2351 37.4993 35.3138 38.1298 35.9583C38.7602 36.6027 39.5237 36.9249 40.4203 36.9249C41.3449 36.9249 42.0384 36.6167 42.5007 36.0003C42.963 35.3839 43.1941 34.5853 43.1941 33.6047C43.1941 32.624 42.949 31.8465 42.4586 31.2721C41.9683 30.6978 41.2608 30.4106 40.3362 30.4106Z" fill="#7a67e0" opacity="1" stroke="none" vectornator:layerName="Текст 1"/>
</g>
</svg>
