<?xml version="1.0" encoding="UTF-8" standalone="no"?>
<!DOCTYPE svg PUBLIC "-//W3C//DTD SVG 1.1//EN" "http://www.w3.org/Graphics/SVG/1.1/DTD/svg11.dtd">
<!-- Created with Vectornator (http://vectornator.io/) -->
<svg height="100%" stroke-miterlimit="10" style="fill-rule:nonzero;clip-rule:evenodd;stroke-linecap:round;stroke-linejoin:round;" version="1.1" viewBox="0 0 80 57.2562" width="100%" xml:space="preserve" xmlns="http://www.w3.org/2000/svg" xmlns:vectornator="http://vectornator.io" xmlns:xlink="http://www.w3.org/1999/xlink">
<defs/>
<g id="Слой-1" vectornator:layerName="Слой 1">
<path d="M6.13593 5.89796L73.8641 5.89796L73.8641 50.8474L6.13593 50.8474L6.13593 5.89796Z" fill="#ffffff" fill-rule="nonzero" opacity="1" stroke="#7a67e0" stroke-linecap="butt" stroke-linejoin="round" stroke-width="8.37261" vectornator:layerName="Прямоугольник 1"/>
<path d="M46.9952 16.6008C48.1335 16.968 49.1433 17.5923 50.0246 18.4736C50.9058 19.3548 51.3465 20.3279 51.3465 21.3928C51.3465 21.8334 51.2363 22.2833 51.016 22.7423C50.7957 23.2013 50.4285 23.6878 49.9144 24.2019L45.5631 28.7184L52.3379 36.5398C51.934 37.825 51.3098 38.844 50.4652 39.5967C49.6206 40.3495 48.5925 40.7259 47.3807 40.7259C46.9768 40.7259 46.4903 40.6065 45.9211 40.3679C45.3519 40.1292 44.8654 39.7528 44.4615 39.2387L39.8898 33.7307L33.0599 41.1114C32.3255 41.0013 31.6462 40.7901 31.022 40.478C30.3977 40.1659 29.8561 39.7987 29.3971 39.3764C28.9381 38.9541 28.5801 38.4951 28.323 37.9994C28.066 37.5037 27.9375 37.0172 27.9375 36.5398C27.9375 35.7687 28.4148 34.8874 29.3696 33.896L34.492 28.388L27.6621 21.3928C27.809 20.842 28.0385 20.2912 28.3506 19.7404C28.6627 19.1896 29.0391 18.7031 29.4797 18.2808C29.9204 17.8585 30.3977 17.5188 30.9118 17.2618C31.4259 17.0048 31.9583 16.8762 32.5091 16.8762C33.5006 16.8762 34.3451 17.2802 35.0428 18.088L40.2203 23.7062L46.9952 16.6008Z" fill="#7a67e0" opacity="1" stroke="none" vectornator:layerName="Текст 1"/>
</g>
</svg>
