<?xml version="1.0" encoding="UTF-8" standalone="no"?>
<!DOCTYPE svg PUBLIC "-//W3C//DTD SVG 1.1//EN" "http://www.w3.org/Graphics/SVG/1.1/DTD/svg11.dtd">
<!-- Created with Vectornator (http://vectornator.io/) -->
<svg height="100%" stroke-miterlimit="10" style="fill-rule:nonzero;clip-rule:evenodd;stroke-linecap:round;stroke-linejoin:round;" version="1.1" viewBox="0 0 80 57.2562" width="100%" xml:space="preserve" xmlns="http://www.w3.org/2000/svg" xmlns:vectornator="http://vectornator.io" xmlns:xlink="http://www.w3.org/1999/xlink">
<defs/>
<g id="Слой-1" vectornator:layerName="Слой 1">
<path d="M6.13593 5.89796L73.8641 5.89796L73.8641 50.8474L6.13593 50.8474L6.13593 5.89796Z" fill="#ffffff" fill-rule="nonzero" opacity="1" stroke="#7a67e0" stroke-linecap="butt" stroke-linejoin="round" stroke-width="8.37261" vectornator:layerName="Прямоугольник 1"/>
<path d="M30.3336 23.2658C30.3336 22.1451 30.5717 21.1224 31.0481 20.1978C31.5244 19.2732 32.1828 18.4747 33.0234 17.8022C33.8639 17.1298 34.8726 16.6114 36.0494 16.2472C37.2262 15.8829 38.515 15.7008 39.9159 15.7008C41.3169 15.7008 42.6057 15.8689 43.7825 16.2052C44.9593 16.5414 45.968 17.0177 46.8085 17.6341C47.6491 18.2505 48.3075 19.007 48.7838 19.9036C49.2601 20.8002 49.4983 21.8089 49.4983 22.9296C49.4983 24.1624 49.2461 25.2411 48.7418 26.1658C48.2375 27.0904 47.537 27.8609 46.6404 28.4773C47.7051 29.2058 48.5737 30.0673 49.2461 31.062C49.9186 32.0567 50.2548 33.3946 50.2548 35.0757C50.2548 36.1964 50.0166 37.2191 49.5403 38.1437C49.064 39.0683 48.3776 39.8669 47.481 40.5393C46.5844 41.2117 45.5057 41.7301 44.2448 42.0943C42.984 42.4586 41.569 42.6407 40 42.6407C38.431 42.6407 37.016 42.4586 35.7552 42.0943C34.4943 41.7301 33.4226 41.2117 32.5401 40.5393C31.6575 39.8669 30.971 39.0683 30.4807 38.1437C29.9904 37.2191 29.7452 36.1964 29.7452 35.0757C29.7452 33.5627 30.0744 32.3018 30.7329 31.2932C31.3913 30.2845 32.1688 29.5 33.0654 28.9396C32.3089 28.3232 31.6645 27.5877 31.1321 26.7331C30.5998 25.8786 30.3336 24.7228 30.3336 23.2658ZM36.932 34.4453C36.932 35.3138 37.2192 36.0003 37.7935 36.5046C38.3679 37.009 39.1034 37.2611 40 37.2611C40.8966 37.2611 41.6321 37.0019 42.2065 36.4836C42.7808 35.9653 43.068 35.2858 43.068 34.4453C43.068 33.6327 42.8229 32.9533 42.3325 32.4069C41.8422 31.8605 41.1768 31.4333 40.3362 31.1251C39.1034 31.4052 38.2278 31.8325 37.7095 32.4069C37.1911 32.9813 36.932 33.6607 36.932 34.4453ZM42.4796 23.518C42.4796 22.7615 42.2555 22.1591 41.8072 21.7108C41.3589 21.2625 40.7285 21.0384 39.9159 21.0384C39.1034 21.0384 38.473 21.2625 38.0247 21.7108C37.5764 22.1591 37.3522 22.7475 37.3522 23.476C37.3522 24.2045 37.5834 24.7928 38.0457 25.2411C38.508 25.6894 39.0474 26.0537 39.6638 26.3339C40.6444 26.1097 41.3589 25.7455 41.8072 25.2411C42.2555 24.7368 42.4796 24.1624 42.4796 23.518Z" fill="#7a67e0" opacity="1" stroke="none" vectornator:layerName="Текст 1"/>
</g>
</svg>
