<?xml version="1.0" encoding="UTF-8" standalone="no"?>
<!DOCTYPE svg PUBLIC "-//W3C//DTD SVG 1.1//EN" "http://www.w3.org/Graphics/SVG/1.1/DTD/svg11.dtd">
<!-- Created with Vectornator (http://vectornator.io/) -->
<svg height="100%" stroke-miterlimit="10" style="fill-rule:nonzero;clip-rule:evenodd;stroke-linecap:round;stroke-linejoin:round;" version="1.1" viewBox="0 0 80 57.2562" width="100%" xml:space="preserve" xmlns="http://www.w3.org/2000/svg" xmlns:vectornator="http://vectornator.io" xmlns:xlink="http://www.w3.org/1999/xlink">
<defs/>
<g id="Слой-1" vectornator:layerName="Слой 1">
<path d="M6.13593 6.1534L73.8641 6.1534L73.8641 51.1028L6.13593 51.1028L6.13593 6.1534Z" fill="#ffffff" fill-rule="nonzero" opacity="1" stroke="#7a67e0" stroke-linecap="butt" stroke-linejoin="round" stroke-width="8.37261" vectornator:layerName="Прямоугольник 1"/>
<path d="M26.4298 29.3087C26.8388 29.1429 27.1853 29.0562 27.4693 29.0487C28.0632 29.033 28.5449 29.1754 28.9145 29.4756C29.2842 29.7759 29.5665 30.1948 29.7616 30.7322L33.0469 37.7377L38.8235 12.8593C38.9519 12.8301 39.1192 12.8063 39.3254 12.7879C39.5316 12.7696 39.7767 12.7566 40.0608 12.7491C41.2226 12.7185 42.1309 12.8689 42.7855 13.2004C43.4402 13.5319 43.7788 14.1237 43.8013 14.9757C43.8136 15.4404 43.7328 16.0497 43.5589 16.8036C43.385 17.5575 43.204 18.2857 43.0159 18.9882L36.479 44.4292C36.2535 44.6935 35.8657 44.9299 35.3157 45.1382C34.7657 45.3464 34.168 45.4591 33.5225 45.4762C32.7738 45.4959 32.1251 45.3903 31.5764 45.1594C31.0277 44.9284 30.6447 44.6091 30.4272 44.2014L25.5976 34.4851L23.8294 35.0356C23.3565 34.7381 22.9843 34.341 22.7128 33.8443C22.4413 33.3477 22.2987 32.8411 22.2851 32.3248C22.2674 31.6535 22.4287 31.1583 22.7691 30.8393C23.1095 30.5203 23.5358 30.2765 24.0481 30.1079L26.4298 29.3087Z" fill="#7a67e0" opacity="1" stroke="none" vectornator:layerName="Текст 1"/>
<g opacity="1" vectornator:layerName="Линия 1">
<path d="M41.7188 12.6562C40.547 12.6421 39.6079 13.5782 39.5938 14.75C39.5796 15.9218 40.5157 16.8609 41.6875 16.875C45.6461 16.9311 49.604 17.0918 53.5625 17.1562C54.8002 17.1712 55.7976 16.1752 55.8125 14.9375C55.8274 13.6998 54.8314 12.6712 53.5938 12.6562C49.6348 12.6252 45.6776 12.6956 41.7188 12.6562Z" fill="#7a67e0" stroke="none"/>
</g>
</g>
</svg>
