<?xml version="1.0" encoding="UTF-8" standalone="no"?>
<!DOCTYPE svg PUBLIC "-//W3C//DTD SVG 1.1//EN" "http://www.w3.org/Graphics/SVG/1.1/DTD/svg11.dtd">
<!-- Created with Vectornator (http://vectornator.io/) -->
<svg height="100%" stroke-miterlimit="10" style="fill-rule:nonzero;clip-rule:evenodd;stroke-linecap:round;stroke-linejoin:round;" version="1.1" viewBox="0 0 80 57.2562" width="100%" xml:space="preserve" xmlns="http://www.w3.org/2000/svg" xmlns:vectornator="http://vectornator.io" xmlns:xlink="http://www.w3.org/1999/xlink">
<defs/>
<g id="Слой-1" vectornator:layerName="Слой 1">
<path d="M6.13593 5.89796L73.8641 5.89796L73.8641 50.8474L6.13593 50.8474L6.13593 5.89796Z" fill="#ffffff" fill-rule="nonzero" opacity="1" stroke="#7a67e0" stroke-linecap="butt" stroke-linejoin="round" stroke-width="8.37261" vectornator:layerName="Прямоугольник 1"/>
<path d="M29.176 26.9905C28.9189 26.5865 28.7078 26.054 28.5425 25.393C28.3773 24.732 28.2946 24.071 28.2946 23.41C28.2946 22.088 28.5884 21.124 29.176 20.5181C29.7636 19.9122 30.5531 19.6092 31.5446 19.6092L50.824 19.6092C51.0076 20.0499 51.2004 20.5915 51.4024 21.2342C51.6044 21.8768 51.7054 22.547 51.7054 23.2447C51.7054 24.53 51.4116 25.4757 50.824 26.0816C50.2364 26.6875 49.4653 26.9905 48.5105 26.9905L29.176 26.9905ZM29.176 37.9522C28.9189 37.5482 28.7078 37.0158 28.5425 36.3547C28.3773 35.6937 28.2946 35.0327 28.2946 34.3717C28.2946 33.0497 28.5884 32.0857 29.176 31.4798C29.7636 30.8739 30.5531 30.5709 31.5446 30.5709L50.824 30.5709C51.0076 31.0116 51.2004 31.5533 51.4024 32.1959C51.6044 32.8385 51.7054 33.5087 51.7054 34.2065C51.7054 35.4918 51.4116 36.4374 50.824 37.0433C50.2364 37.6492 49.4653 37.9522 48.5105 37.9522L29.176 37.9522Z" fill="#7a67e0" opacity="1" stroke="none" vectornator:layerName="Текст 1"/>
</g>
</svg>
