<?xml version="1.0" encoding="UTF-8" standalone="no"?>
<!DOCTYPE svg PUBLIC "-//W3C//DTD SVG 1.1//EN" "http://www.w3.org/Graphics/SVG/1.1/DTD/svg11.dtd">
<!-- Created with Vectornator (http://vectornator.io/) -->
<svg height="100%" stroke-miterlimit="10" style="fill-rule:nonzero;clip-rule:evenodd;stroke-linecap:round;stroke-linejoin:round;" version="1.1" viewBox="0 0 80 57.2562" width="100%" xml:space="preserve" xmlns="http://www.w3.org/2000/svg" xmlns:vectornator="http://vectornator.io" xmlns:xlink="http://www.w3.org/1999/xlink">
<defs/>
<g id="Слой-1" vectornator:layerName="Слой 1">
<path d="M6.13593 5.89796L73.8641 5.89796L73.8641 50.8474L6.13593 50.8474L6.13593 5.89796Z" fill="#ffffff" fill-rule="nonzero" opacity="1" stroke="#7a67e0" stroke-linecap="butt" stroke-linejoin="round" stroke-width="8.37261" vectornator:layerName="Прямоугольник 1"/>
<path d="M37.1841 36.9669C38.9773 36.9669 40.4133 36.5046 41.492 35.58C42.5707 34.6554 43.1101 33.3805 43.1101 31.7555C42.8019 32.0076 42.2345 32.3018 41.4079 32.6381C40.5814 32.9743 39.5237 33.1424 38.2348 33.1424C36.946 33.1424 35.7762 32.9603 34.7255 32.596C33.6748 32.2318 32.7712 31.6924 32.0147 30.978C31.2582 30.2635 30.6698 29.3879 30.2495 28.3512C29.8293 27.3145 29.6191 26.1097 29.6191 24.7368C29.6191 23.532 29.8293 22.3903 30.2495 21.3115C30.6698 20.2328 31.3002 19.2802 32.1408 18.4536C32.9813 17.6271 34.025 16.9687 35.2719 16.4783C36.5187 15.988 37.9687 15.7428 39.6217 15.7428C42.9279 15.7428 45.5267 16.8496 47.4179 19.063C49.3092 21.2765 50.2548 24.4286 50.2548 28.5193C50.2548 30.8449 49.9606 32.8902 49.3722 34.6554C48.7838 36.4206 47.9643 37.8915 46.9136 39.0683C45.8629 40.2451 44.6091 41.1277 43.1521 41.7161C41.6951 42.3045 40.0841 42.5987 38.3189 42.5987C36.0774 42.5987 34.3262 42.2905 33.0654 41.674C31.8046 41.0576 31.1741 40.119 31.1741 38.8582C31.1741 38.2698 31.3072 37.7024 31.5734 37.1561C31.8396 36.6097 32.1548 36.1964 32.519 35.9162C33.2755 36.2525 34.0671 36.5116 34.8936 36.6937C35.7202 36.8759 36.4837 36.9669 37.1841 36.9669ZM39.8739 27.7628C40.4063 27.7628 40.9456 27.6507 41.492 27.4266C42.0384 27.2024 42.4937 26.8942 42.8579 26.502L42.8579 25.9976C42.8299 24.4006 42.5497 23.2378 42.0173 22.5093C41.485 21.7809 40.7005 21.4166 39.6638 21.4166C38.7392 21.4166 38.0177 21.7038 37.4993 22.2782C36.981 22.8526 36.7218 23.6301 36.7218 24.6107C36.7218 25.5634 37.016 26.3269 37.6044 26.9012C38.1928 27.4756 38.9493 27.7628 39.8739 27.7628Z" fill="#7a67e0" opacity="1" stroke="none" vectornator:layerName="Текст 1"/>
</g>
</svg>
