<?xml version="1.0" encoding="UTF-8" standalone="no"?>
<!DOCTYPE svg PUBLIC "-//W3C//DTD SVG 1.1//EN" "http://www.w3.org/Graphics/SVG/1.1/DTD/svg11.dtd">
<!-- Created with Vectornator (http://vectornator.io/) -->
<svg height="100%" stroke-miterlimit="10" style="fill-rule:nonzero;clip-rule:evenodd;stroke-linecap:round;stroke-linejoin:round;" version="1.1" viewBox="0 0 80 57.2562" width="100%" xml:space="preserve" xmlns="http://www.w3.org/2000/svg" xmlns:vectornator="http://vectornator.io" xmlns:xlink="http://www.w3.org/1999/xlink">
<defs/>
<g id="Слой-1" vectornator:layerName="Слой 1">
<path d="M6.13593 5.89796L73.8641 5.89796L73.8641 50.8474L6.13593 50.8474L6.13593 5.89796Z" fill="#ffffff" fill-rule="nonzero" opacity="1" stroke="#7a67e0" stroke-linecap="butt" stroke-linejoin="round" stroke-width="8.37261" vectornator:layerName="Прямоугольник 1"/>
<g fill="#7a67e0" opacity="1" stroke="none" vectornator:layerName="Текст 1">
<path d="M31.3423 29.1497C31.3423 26.6841 30.985 24.7788 30.2705 23.4339C29.5561 22.0891 28.5404 21.4166 27.2235 21.4166C25.9066 21.4166 24.905 22.0891 24.2185 23.4339C23.5321 24.7788 23.1888 26.6841 23.1888 29.1497C23.1888 31.6154 23.5321 33.5276 24.2185 34.8865C24.905 36.2454 25.9066 36.9249 27.2235 36.9249C28.5404 36.9249 29.5561 36.2454 30.2705 34.8865C30.985 33.5276 31.3423 31.6154 31.3423 29.1497ZM38.529 29.1497C38.529 31.3072 38.2488 33.2264 37.6885 34.9076C37.1281 36.5887 36.3506 37.9966 35.3559 39.1314C34.3613 40.2661 33.1705 41.1277 31.7835 41.7161C30.3966 42.3045 28.8906 42.5987 27.2656 42.5987C25.6125 42.5987 24.0924 42.3045 22.7055 41.7161C21.3186 41.1277 20.1278 40.2661 19.1332 39.1314C18.1385 37.9966 17.368 36.5887 16.8216 34.9076C16.2753 33.2264 16.0021 31.3072 16.0021 29.1497C16.0021 26.9923 16.2753 25.08 16.8216 23.4129C17.368 21.7458 18.1385 20.3449 19.1332 19.2101C20.1278 18.0754 21.3186 17.2138 22.7055 16.6254C24.0924 16.037 25.6125 15.7428 27.2656 15.7428C28.8906 15.7428 30.3966 16.037 31.7835 16.6254C33.1705 17.2138 34.3613 18.0754 35.3559 19.2101C36.3506 20.3449 37.1281 21.7458 37.6885 23.4129C38.2488 25.08 38.529 26.9923 38.529 29.1497Z"/>
<path d="M56.8112 29.1497C56.8112 26.6841 56.4539 24.7788 55.7394 23.4339C55.025 22.0891 54.0093 21.4166 52.6924 21.4166C51.3755 21.4166 50.3739 22.0891 49.6874 23.4339C49.001 24.7788 48.6577 26.6841 48.6577 29.1497C48.6577 31.6154 49.001 33.5276 49.6874 34.8865C50.3739 36.2454 51.3755 36.9249 52.6924 36.9249C54.0093 36.9249 55.025 36.2454 55.7394 34.8865C56.4539 33.5276 56.8112 31.6154 56.8112 29.1497ZM63.9979 29.1497C63.9979 31.3072 63.7177 33.2264 63.1574 34.9076C62.597 36.5887 61.8195 37.9966 60.8248 39.1314C59.8302 40.2661 58.6394 41.1277 57.2524 41.7161C55.8655 42.3045 54.3595 42.5987 52.7344 42.5987C51.0814 42.5987 49.5613 42.3045 48.1744 41.7161C46.7875 41.1277 45.5967 40.2661 44.6021 39.1314C43.6074 37.9966 42.8369 36.5887 42.2905 34.9076C41.7442 33.2264 41.471 31.3072 41.471 29.1497C41.471 26.9923 41.7442 25.08 42.2905 23.4129C42.8369 21.7458 43.6074 20.3449 44.6021 19.2101C45.5967 18.0754 46.7875 17.2138 48.1744 16.6254C49.5613 16.037 51.0814 15.7428 52.7344 15.7428C54.3595 15.7428 55.8655 16.037 57.2524 16.6254C58.6394 17.2138 59.8302 18.0754 60.8248 19.2101C61.8195 20.3449 62.597 21.7458 63.1574 23.4129C63.7177 25.08 63.9979 26.9923 63.9979 29.1497Z"/>
</g>
</g>
</svg>
