<?xml version="1.0" encoding="UTF-8" standalone="no"?>
<!DOCTYPE svg PUBLIC "-//W3C//DTD SVG 1.1//EN" "http://www.w3.org/Graphics/SVG/1.1/DTD/svg11.dtd">
<!-- Created with Vectornator (http://vectornator.io/) -->
<svg height="100%" stroke-miterlimit="10" style="fill-rule:nonzero;clip-rule:evenodd;stroke-linecap:round;stroke-linejoin:round;" version="1.1" viewBox="0 0 80 57.2562" width="100%" xml:space="preserve" xmlns="http://www.w3.org/2000/svg" xmlns:vectornator="http://vectornator.io" xmlns:xlink="http://www.w3.org/1999/xlink">
<defs/>
<g id="Слой-1" vectornator:layerName="Слой 1">
<path d="M6.13593 5.89796L73.8641 5.89796L73.8641 50.8474L6.13593 50.8474L6.13593 5.89796Z" fill="#ffffff" fill-rule="nonzero" opacity="1" stroke="#7a67e0" stroke-linecap="butt" stroke-linejoin="round" stroke-width="8.37261" vectornator:layerName="Прямоугольник 1"/>
<path d="M50.9979 43.3465C52.7722 43.3465 54.1365 42.9364 55.0907 42.1163C56.0449 41.2962 56.522 39.999 56.522 38.2247L56.522 19.1457C56.522 17.3714 56.0449 16.0123 55.0907 15.0684C54.1365 14.1245 52.7722 13.6526 50.9979 13.6526L37.7525 13.6526C36.8756 13.6526 36.1148 13.7274 35.4701 13.8769C34.8254 14.0265 34.2348 14.2818 33.6984 14.6429C33.1619 15.0039 32.6204 15.4991 32.0736 16.1284L24.0428 25.0876C23.5889 25.6034 23.2356 26.0547 22.9829 26.4415C22.7301 26.8284 22.5522 27.1817 22.449 27.5015C22.3459 27.8213 22.2943 28.1462 22.2943 28.4763C22.2943 28.8167 22.3459 29.1494 22.449 29.4744C22.5522 29.7993 22.7301 30.1526 22.9829 30.5343C23.2356 30.916 23.5889 31.3647 24.0428 31.8805L32.0736 40.8243C32.6204 41.4535 33.1619 41.9513 33.6984 42.3175C34.2348 42.6837 34.8228 42.9467 35.4624 43.1066C36.1019 43.2665 36.8601 43.3465 37.737 43.3465L50.9979 43.3465ZM50.5182 39.1995L37.443 39.1995C36.9994 39.1995 36.61 39.1248 36.2747 38.9752C35.9395 38.8256 35.6119 38.5703 35.2921 38.2092L27.3078 29.3738C27.153 29.2087 27.0421 29.054 26.9751 28.9096C26.908 28.7652 26.8745 28.6207 26.8745 28.4763C26.8745 28.1978 27.0189 27.9038 27.3078 27.5943L35.2767 18.697C35.6068 18.3462 35.9395 18.1064 36.2747 17.9775C36.61 17.8485 36.9994 17.784 37.443 17.784L50.5182 17.784C51.1268 17.784 51.5885 17.9362 51.9031 18.2405C52.2177 18.5448 52.375 19.0219 52.375 19.6718L52.375 37.3272C52.375 37.9668 52.2177 38.4388 51.9031 38.7431C51.5885 39.0474 51.1268 39.1995 50.5182 39.1995ZM37.6132 34.9133C38.129 34.9133 38.5519 34.7431 38.882 34.4027L42.3172 30.9676L45.7833 34.4027C46.1134 34.7431 46.5312 34.9133 47.0366 34.9133C47.5112 34.9133 47.9135 34.7457 48.2436 34.4105C48.5737 34.0752 48.7387 33.6703 48.7387 33.1958C48.7387 32.7419 48.5685 32.3447 48.2281 32.0043L44.762 28.5227L48.2281 25.0412C48.5788 24.7008 48.7542 24.3088 48.7542 23.8652C48.7542 23.3803 48.5892 22.9729 48.2591 22.6428C47.9289 22.3127 47.5215 22.1476 47.0366 22.1476C46.5518 22.1476 46.1392 22.3178 45.7987 22.6582L42.3172 26.1089L38.8666 22.6737C38.5468 22.3333 38.129 22.1631 37.6132 22.1631C37.1387 22.1631 36.7364 22.3255 36.4062 22.6505C36.0761 22.9754 35.9111 23.3803 35.9111 23.8652C35.9111 24.3191 36.0813 24.7162 36.4217 25.0566L39.9033 28.5227L36.4217 32.0043C36.0813 32.3447 35.9111 32.7419 35.9111 33.1958C35.9111 33.6703 36.0761 34.0752 36.4062 34.4105C36.7364 34.7457 37.1387 34.9133 37.6132 34.9133Z" fill="#7a67e0" opacity="1" stroke="none" vectornator:layerName="Текст 2"/>
</g>
</svg>
