<?xml version="1.0" encoding="UTF-8" standalone="no"?>
<!DOCTYPE svg PUBLIC "-//W3C//DTD SVG 1.1//EN" "http://www.w3.org/Graphics/SVG/1.1/DTD/svg11.dtd">
<!-- Created with Vectornator (http://vectornator.io/) -->
<svg height="100%" stroke-miterlimit="10" style="fill-rule:nonzero;clip-rule:evenodd;stroke-linecap:round;stroke-linejoin:round;" version="1.1" viewBox="0 0 80 57.2562" width="100%" xml:space="preserve" xmlns="http://www.w3.org/2000/svg" xmlns:vectornator="http://vectornator.io" xmlns:xlink="http://www.w3.org/1999/xlink">
<defs/>
<g id="Слой-1" vectornator:layerName="Слой 1">
<path d="M6.13593 5.89796L73.8641 5.89796L73.8641 50.8474L6.13593 50.8474L6.13593 5.89796Z" fill="#ffffff" fill-rule="nonzero" opacity="1" stroke="#7a67e0" stroke-linecap="butt" stroke-linejoin="round" stroke-width="8.37261" vectornator:layerName="Прямоугольник 1"/>
<path d="M39.2855 16.6675C39.8179 16.4993 40.4273 16.3593 41.1137 16.2472C41.8002 16.1351 42.4236 16.0791 42.984 16.0791C43.6284 16.0791 44.2518 16.1421 44.8542 16.2682C45.4566 16.3943 45.996 16.6044 46.4723 16.8986C46.9486 17.1928 47.3269 17.5921 47.607 18.0964C47.8872 18.6007 48.0273 19.2312 48.0273 19.9877L48.0273 31.1671L51.7678 31.1671C51.9359 31.4753 52.104 31.8816 52.2721 32.3859C52.4403 32.8902 52.5243 33.4226 52.5243 33.9829C52.5243 35.0477 52.2862 35.8042 51.8098 36.2525C51.3335 36.7007 50.7311 36.9249 50.0026 36.9249L48.0273 36.9249L48.0273 41.8842C47.7191 41.9402 47.2568 42.0173 46.6404 42.1153C46.024 42.2134 45.4356 42.2624 44.8752 42.2624C44.2588 42.2624 43.7125 42.2344 43.2361 42.1784C42.7598 42.1223 42.3606 41.9893 42.0384 41.7791C41.7161 41.569 41.471 41.2678 41.3029 40.8755C41.1348 40.4833 41.0507 39.9509 41.0507 39.2785L41.0507 36.9249L30.5017 36.9249C29.8573 36.5887 29.3039 36.0913 28.8416 35.4329C28.3793 34.7745 28.1481 33.9689 28.1481 33.0163C28.1481 32.484 28.2182 31.8956 28.3583 31.2511C28.4984 30.6067 28.7365 30.0463 29.0727 29.57L39.2855 16.6675ZM41.4289 23.2658L41.3029 23.2658L35.7132 31.1671L41.4289 31.1671L41.4289 23.2658Z" fill="#7a67e0" opacity="1" stroke="none" vectornator:layerName="Текст 1"/>
</g>
</svg>
