<?xml version="1.0" encoding="UTF-8" standalone="no"?>
<!DOCTYPE svg PUBLIC "-//W3C//DTD SVG 1.1//EN" "http://www.w3.org/Graphics/SVG/1.1/DTD/svg11.dtd">
<!-- Created with Vectornator (http://vectornator.io/) -->
<svg height="100%" stroke-miterlimit="10" style="fill-rule:nonzero;clip-rule:evenodd;stroke-linecap:round;stroke-linejoin:round;" version="1.1" viewBox="0 0 80 57.2562" width="100%" xml:space="preserve" xmlns="http://www.w3.org/2000/svg" xmlns:vectornator="http://vectornator.io" xmlns:xlink="http://www.w3.org/1999/xlink">
<defs/>
<g id="Слой-1" vectornator:layerName="Слой 1">
<path d="M6.13593 5.89796L73.8641 5.89796L73.8641 50.8474L6.13593 50.8474L6.13593 5.89796Z" fill="#ffffff" fill-rule="nonzero" opacity="1" stroke="#7a67e0" stroke-linecap="butt" stroke-linejoin="round" stroke-width="8.37261" vectornator:layerName="Прямоугольник 1"/>
<path d="M34.7952 28.2216C34.7952 26.7192 35.2602 25.4672 36.1903 24.4655C37.1204 23.4639 38.3903 22.9631 40 22.9631C41.6097 22.9631 42.8796 23.4639 43.8097 24.4655C44.7398 25.4672 45.2048 26.7192 45.2048 28.2216C45.2048 29.724 44.7398 30.9761 43.8097 31.9777C42.8796 32.9793 41.6097 33.4801 40 33.4801C38.3903 33.4801 37.1204 32.9793 36.1903 31.9777C35.2602 30.9761 34.7952 29.724 34.7952 28.2216Z" fill="#7a67e0" opacity="1" stroke="none" vectornator:layerName="Текст 1"/>
</g>
</svg>
