<?xml version="1.0" encoding="UTF-8" standalone="no"?>
<!DOCTYPE svg PUBLIC "-//W3C//DTD SVG 1.1//EN" "http://www.w3.org/Graphics/SVG/1.1/DTD/svg11.dtd">
<!-- Created with Vectornator (http://vectornator.io/) -->
<svg height="100%" stroke-miterlimit="10" style="fill-rule:nonzero;clip-rule:evenodd;stroke-linecap:round;stroke-linejoin:round;" version="1.1" viewBox="0 0 80 57.2562" width="100%" xml:space="preserve" xmlns="http://www.w3.org/2000/svg" xmlns:vectornator="http://vectornator.io" xmlns:xlink="http://www.w3.org/1999/xlink">
<defs/>
<g id="Слой-1" vectornator:layerName="Слой 1">
<path d="M6.13593 5.89796L73.8641 5.89796L73.8641 50.8474L6.13593 50.8474L6.13593 5.89796Z" fill="#ffffff" fill-rule="nonzero" opacity="1" stroke="#7a67e0" stroke-linecap="butt" stroke-linejoin="round" stroke-width="8.37261" vectornator:layerName="Прямоугольник 1"/>
<path d="M28.6252 32.8294C28.3681 32.4254 28.1569 31.8929 27.9917 31.2319C27.8264 30.5709 27.7438 29.9099 27.7438 29.2489C27.7438 27.9269 28.0376 26.9629 28.6252 26.357C29.2127 25.7511 30.0023 25.4481 30.9938 25.4481L51.3748 25.4481C51.5585 25.8888 51.7513 26.4304 51.9532 27.0731C52.1552 27.7157 52.2562 28.3859 52.2562 29.0837C52.2562 30.3689 51.9624 31.3146 51.3748 31.9205C50.7873 32.5264 50.0161 32.8294 49.0613 32.8294L28.6252 32.8294Z" fill="#7a67e0" opacity="1" stroke="none" vectornator:layerName="Текст 1"/>
</g>
</svg>
