<?xml version="1.0" encoding="UTF-8" standalone="no"?>
<!DOCTYPE svg PUBLIC "-//W3C//DTD SVG 1.1//EN" "http://www.w3.org/Graphics/SVG/1.1/DTD/svg11.dtd">
<!-- Created with Vectornator (http://vectornator.io/) -->
<svg height="100%" stroke-miterlimit="10" style="fill-rule:nonzero;clip-rule:evenodd;stroke-linecap:round;stroke-linejoin:round;" version="1.1" viewBox="0 0 80 57.2562" width="100%" xml:space="preserve" xmlns="http://www.w3.org/2000/svg" xmlns:vectornator="http://vectornator.io" xmlns:xlink="http://www.w3.org/1999/xlink">
<defs/>
<g id="Слой-1" vectornator:layerName="Слой 1">
<path d="M6.13593 5.89796L73.8641 5.89796L73.8641 50.8474L6.13593 50.8474L6.13593 5.89796Z" fill="#ffffff" fill-rule="nonzero" opacity="1" stroke="#7a67e0" stroke-linecap="butt" stroke-linejoin="round" stroke-width="8.37261" vectornator:layerName="Прямоугольник 1"/>
<path d="M38.9073 15.7428C42.1294 15.7428 44.581 16.4083 46.2622 17.7392C47.9433 19.0701 48.7838 20.8562 48.7838 23.0977C48.7838 24.4426 48.4266 25.5844 47.7121 26.523C46.9976 27.4616 46.1501 28.1691 45.1694 28.6454C45.7578 28.8696 46.3042 29.1497 46.8085 29.486C47.3129 29.8222 47.7611 30.2425 48.1534 30.7468C48.5457 31.2511 48.8539 31.8395 49.078 32.512C49.3022 33.1844 49.4142 33.9689 49.4142 34.8655C49.4142 36.0703 49.1551 37.149 48.6367 38.1017C48.1184 39.0543 47.3969 39.8669 46.4723 40.5393C45.5477 41.2117 44.448 41.7231 43.1731 42.0733C41.8983 42.4235 40.5043 42.5987 38.9913 42.5987C36.0774 42.5987 33.8779 42.1924 32.393 41.3799C30.908 40.5673 30.1655 39.5306 30.1655 38.2698C30.1655 37.5133 30.3476 36.8619 30.7118 36.3155C31.0761 35.7691 31.5244 35.3418 32.0567 35.0336C32.6171 35.4259 33.3666 35.8392 34.3052 36.2735C35.2438 36.7078 36.4697 36.9249 37.9827 36.9249C39.4116 36.9249 40.4693 36.6727 41.1558 36.1684C41.8422 35.6641 42.1855 35.0056 42.1855 34.1931C42.1855 33.3805 41.9123 32.7641 41.3659 32.3439C40.8195 31.9236 39.8739 31.7134 38.529 31.7134L34.5784 31.7134C34.3823 31.4052 34.2142 31.027 34.0741 30.5787C33.934 30.1304 33.8639 29.598 33.8639 28.9816C33.8639 28.3372 33.927 27.7838 34.0531 27.3215C34.1791 26.8592 34.3543 26.474 34.5784 26.1658L38.529 26.1658C40.5464 26.1658 41.555 25.3952 41.555 23.8542C41.555 23.1257 41.2328 22.5374 40.5884 22.0891C39.944 21.6408 38.9773 21.4166 37.6885 21.4166C36.5397 21.4166 35.531 21.5497 34.6625 21.8159C33.7939 22.0821 33.0794 22.4113 32.519 22.8035C32.0427 22.4673 31.6505 22.054 31.3423 21.5637C31.0341 21.0734 30.8799 20.492 30.8799 19.8195C30.8799 18.4186 31.6084 17.3889 33.0654 16.7305C34.5224 16.0721 36.4697 15.7428 38.9073 15.7428Z" fill="#7a67e0" opacity="1" stroke="none" vectornator:layerName="Текст 1"/>
</g>
</svg>
