<?xml version="1.0" encoding="UTF-8" standalone="no"?>
<!DOCTYPE svg PUBLIC "-//W3C//DTD SVG 1.1//EN" "http://www.w3.org/Graphics/SVG/1.1/DTD/svg11.dtd">
<!-- Created with Vectornator (http://vectornator.io/) -->
<svg height="100%" stroke-miterlimit="10" style="fill-rule:nonzero;clip-rule:evenodd;stroke-linecap:round;stroke-linejoin:round;" version="1.1" viewBox="0 0 80 57.2562" width="100%" xml:space="preserve" xmlns="http://www.w3.org/2000/svg" xmlns:vectornator="http://vectornator.io" xmlns:xlink="http://www.w3.org/1999/xlink">
<defs/>
<g id="Слой-1" vectornator:layerName="Слой 1">
<path d="M6.13593 5.89796L73.8641 5.89796L73.8641 50.8474L6.13593 50.8474L6.13593 5.89796Z" fill="#ffffff" fill-rule="nonzero" opacity="1" stroke="#7a67e0" stroke-linecap="butt" stroke-linejoin="round" stroke-width="8.37261" vectornator:layerName="Прямоугольник 1"/>
<path d="M44.3241 42.3038C44.0303 42.4507 43.4887 42.5701 42.6991 42.6619C41.9096 42.7537 41.1476 42.7996 40.4131 42.7996C38.9075 42.7996 37.7691 42.5517 36.9979 42.0559C36.2267 41.5602 35.8412 40.5044 35.8412 38.8886L35.8412 32.8294L27.5235 32.8294C27.2664 32.4254 27.0553 31.8929 26.89 31.2319C26.7248 30.5709 26.6421 29.9099 26.6421 29.2489C26.6421 27.9269 26.9359 26.9629 27.5235 26.357C28.111 25.7511 28.9006 25.4481 29.8921 25.4481L35.8412 25.4481L35.8412 16.194C36.2084 16.0838 36.7684 15.9645 37.5212 15.836C38.274 15.7074 39.0177 15.6432 39.7521 15.6432C41.221 15.6432 42.3503 15.9002 43.1398 16.4143C43.9293 16.9285 44.3241 18.0118 44.3241 19.6643L44.3241 25.4481L52.4765 25.4481C52.6601 25.8888 52.8529 26.4304 53.0549 27.0731C53.2569 27.7157 53.3579 28.3859 53.3579 29.0837C53.3579 30.3689 53.0641 31.3146 52.4765 31.9205C51.889 32.5264 51.1178 32.8294 50.163 32.8294L44.3241 32.8294L44.3241 42.3038Z" fill="#7a67e0" opacity="1" stroke="none" vectornator:layerName="Текст 1"/>
</g>
</svg>
