<?xml version="1.0" encoding="UTF-8" standalone="no"?>
<!DOCTYPE svg PUBLIC "-//W3C//DTD SVG 1.1//EN" "http://www.w3.org/Graphics/SVG/1.1/DTD/svg11.dtd">
<!-- Created with Vectornator (http://vectornator.io/) -->
<svg height="100%" stroke-miterlimit="10" style="fill-rule:nonzero;clip-rule:evenodd;stroke-linecap:round;stroke-linejoin:round;" version="1.1" viewBox="0 0 80 57.2562" width="100%" xml:space="preserve" xmlns="http://www.w3.org/2000/svg" xmlns:vectornator="http://vectornator.io" xmlns:xlink="http://www.w3.org/1999/xlink">
<defs/>
<g id="Слой-1" vectornator:layerName="Слой 1">
<path d="M6.13593 5.89796L73.8641 5.89796L73.8641 50.8474L6.13593 50.8474L6.13593 5.89796Z" fill="#ffffff" fill-rule="nonzero" opacity="1" stroke="#7a67e0" stroke-linecap="butt" stroke-linejoin="round" stroke-width="8.37261" vectornator:layerName="Прямоугольник 1"/>
<path d="M39.1594 15.7428C40.7565 15.7428 42.1714 15.946 43.4043 16.3522C44.6371 16.7585 45.6878 17.3119 46.5564 18.0124C47.4249 18.7128 48.0834 19.5394 48.5317 20.492C48.98 21.4446 49.2041 22.4673 49.2041 23.56C49.2041 26.502 47.537 29.3038 44.2028 31.9656L38.6971 36.3785L48.7838 36.3785C48.9519 36.6867 49.113 37.079 49.2671 37.5553C49.4213 38.0316 49.4983 38.55 49.4983 39.1103C49.4983 40.119 49.2742 40.8405 48.8259 41.2748C48.3776 41.7091 47.7892 41.9262 47.0607 41.9262L32.477 41.9262C31.8606 41.5059 31.3773 40.9666 31.027 40.3081C30.6768 39.6497 30.5017 38.8722 30.5017 37.9756C30.5017 37.023 30.6978 36.2174 31.0901 35.559C31.4823 34.9006 31.9166 34.3752 32.393 33.9829L38.1928 29.0237C38.9213 28.4072 39.5237 27.8539 40 27.3636C40.4763 26.8732 40.8616 26.4319 41.1558 26.0397C41.45 25.6474 41.6601 25.2832 41.7862 24.947C41.9123 24.6107 41.9753 24.2885 41.9753 23.9803C41.9753 23.1958 41.6321 22.5794 40.9456 22.1311C40.2592 21.6828 39.4116 21.4586 38.4029 21.4586C37.2822 21.4586 36.2805 21.6338 35.3979 21.984C34.5154 22.3342 33.7799 22.7055 33.1915 23.0977C32.7152 22.7615 32.3229 22.3412 32.0147 21.8369C31.7065 21.3326 31.5524 20.7442 31.5524 20.0717C31.5524 18.6147 32.2389 17.529 33.6118 16.8146C34.9847 16.1001 36.8339 15.7428 39.1594 15.7428Z" fill="#7a67e0" opacity="1" stroke="none" vectornator:layerName="Текст 1"/>
</g>
</svg>
