<?xml version="1.0" encoding="UTF-8" standalone="no"?>
<!DOCTYPE svg PUBLIC "-//W3C//DTD SVG 1.1//EN" "http://www.w3.org/Graphics/SVG/1.1/DTD/svg11.dtd">
<!-- Created with Vectornator (http://vectornator.io/) -->
<svg height="100%" stroke-miterlimit="10" style="fill-rule:nonzero;clip-rule:evenodd;stroke-linecap:round;stroke-linejoin:round;" version="1.1" viewBox="0 0 80 57.2562" width="100%" xml:space="preserve" xmlns="http://www.w3.org/2000/svg" xmlns:vectornator="http://vectornator.io" xmlns:xlink="http://www.w3.org/1999/xlink">
<defs/>
<g id="Слой-1" vectornator:layerName="Слой 1">
<path d="M6.13593 5.89796L73.8641 5.89796L73.8641 50.8474L6.13593 50.8474L6.13593 5.89796Z" fill="#ffffff" fill-rule="nonzero" opacity="1" stroke="#7a67e0" stroke-linecap="butt" stroke-linejoin="round" stroke-width="8.37261" vectornator:layerName="Прямоугольник 1"/>
<path d="M46.2364 14.0067C47.257 14.1568 48.1651 14.4345 48.9605 14.8397C49.756 15.245 50.1838 15.7928 50.2438 16.4832C50.2438 16.9635 50.1238 17.4588 49.8836 17.9691C49.6435 18.4795 49.3283 19.0048 48.938 19.5451L33.3584 42.1041C32.3978 41.954 31.5948 41.6763 30.9494 41.2711C30.304 40.8658 29.9513 40.318 29.8912 39.6276C29.8912 39.1473 29.9288 38.6745 30.0038 38.2092C30.0789 37.7439 30.3115 37.2111 30.7017 36.6107L46.2364 14.0067ZM37.8161 21.1661C37.8161 23.4175 37.1407 25.1736 35.7899 26.4344C34.4391 27.6952 32.698 28.3256 30.5667 28.3256C28.4053 28.3256 26.6567 27.6952 25.3209 26.4344C23.9851 25.1736 23.3172 23.4175 23.3172 21.1661C23.3172 18.9448 23.9851 17.2037 25.3209 15.9429C26.6567 14.6821 28.4053 14.0517 30.5667 14.0517C32.698 14.0517 34.4391 14.6821 35.7899 15.9429C37.1407 17.2037 37.8161 18.9448 37.8161 21.1661ZM28.7655 21.1661C28.7655 22.0667 28.9381 22.7346 29.2834 23.1699C29.6286 23.6051 30.0563 23.8228 30.5667 23.8228C31.077 23.8228 31.5047 23.6051 31.85 23.1699C32.1952 22.7346 32.3678 22.0667 32.3678 21.1661C32.3678 20.2956 32.1952 19.6502 31.85 19.2299C31.5047 18.8097 31.077 18.5995 30.5667 18.5995C30.0563 18.5995 29.6286 18.8097 29.2834 19.2299C28.9381 19.6502 28.7655 20.2956 28.7655 21.1661ZM56.6828 34.9897C56.6828 37.2411 56.0074 38.9972 54.6566 40.2579C53.3057 41.5187 51.5647 42.1491 49.4333 42.1491C47.272 42.1491 45.5234 41.5187 44.1876 40.2579C42.8518 38.9972 42.1839 37.2411 42.1839 34.9897C42.1839 32.7683 42.8518 31.0272 44.1876 29.7665C45.5234 28.5057 47.272 27.8753 49.4333 27.8753C51.5647 27.8753 53.3057 28.5057 54.6566 29.7665C56.0074 31.0272 56.6828 32.7683 56.6828 34.9897ZM47.6322 34.9897C47.6322 35.8902 47.8048 36.5582 48.15 36.9934C48.4953 37.4287 48.923 37.6463 49.4333 37.6463C49.9437 37.6463 50.3714 37.4287 50.7166 36.9934C51.0619 36.5582 51.2345 35.8902 51.2345 34.9897C51.2345 34.1191 51.0619 33.4737 50.7166 33.0535C50.3714 32.6332 49.9437 32.4231 49.4333 32.4231C48.923 32.4231 48.4953 32.6332 48.15 33.0535C47.8048 33.4737 47.6322 34.1191 47.6322 34.9897Z" fill="#7a67e0" opacity="1" stroke="none" vectornator:layerName="Текст 1"/>
</g>
</svg>
