<?xml version="1.0" encoding="UTF-8" standalone="no"?>
<!DOCTYPE svg PUBLIC "-//W3C//DTD SVG 1.1//EN" "http://www.w3.org/Graphics/SVG/1.1/DTD/svg11.dtd">
<!-- Created with Vectornator (http://vectornator.io/) -->
<svg height="100%" stroke-miterlimit="10" style="fill-rule:nonzero;clip-rule:evenodd;stroke-linecap:round;stroke-linejoin:round;" version="1.1" viewBox="0 0 80 57.2562" width="100%" xml:space="preserve" xmlns="http://www.w3.org/2000/svg" xmlns:vectornator="http://vectornator.io" xmlns:xlink="http://www.w3.org/1999/xlink">
<defs/>
<g id="Слой-1" vectornator:layerName="Слой 1">
<path d="M6.13593 5.89796L73.8641 5.89796L73.8641 50.8474L6.13593 50.8474L6.13593 5.89796Z" fill="#ffffff" fill-rule="nonzero" opacity="1" stroke="#7a67e0" stroke-linecap="butt" stroke-linejoin="round" stroke-width="8.37261" vectornator:layerName="Прямоугольник 1"/>
<path d="M38.2558 23.1818L34.0531 24.4846C33.6328 24.2045 33.2125 23.8122 32.7922 23.3079C32.3719 22.8035 32.1618 22.1031 32.1618 21.2065C32.1618 19.5254 33.1845 18.3486 35.2298 17.6761L39.937 16.0791L41.492 16.0791C42.6968 16.0791 43.6494 16.4293 44.3499 17.1298C45.0504 17.8302 45.4006 18.7829 45.4006 19.9877L45.4006 41.8842C45.0924 41.9402 44.6371 42.0173 44.0347 42.1153C43.4323 42.2134 42.8229 42.2624 42.2065 42.2624C41.5901 42.2624 41.0367 42.2204 40.5464 42.1364C40.056 42.0523 39.6428 41.8842 39.3065 41.632C38.9703 41.3799 38.7111 41.0366 38.529 40.6023C38.3469 40.168 38.2558 39.6007 38.2558 38.9002L38.2558 23.1818Z" fill="#7a67e0" opacity="1" stroke="none" vectornator:layerName="Текст 1"/>
</g>
</svg>
