<?xml version="1.0" encoding="UTF-8" standalone="no"?>
<!DOCTYPE svg PUBLIC "-//W3C//DTD SVG 1.1//EN" "http://www.w3.org/Graphics/SVG/1.1/DTD/svg11.dtd">
<!-- Created with Vectornator (http://vectornator.io/) -->
<svg height="100%" stroke-miterlimit="10" style="fill-rule:nonzero;clip-rule:evenodd;stroke-linecap:round;stroke-linejoin:round;" version="1.1" viewBox="0 0 80 57.2562" width="100%" xml:space="preserve" xmlns="http://www.w3.org/2000/svg" xmlns:vectornator="http://vectornator.io" xmlns:xlink="http://www.w3.org/1999/xlink">
<defs/>
<g id="Слой-1" vectornator:layerName="Слой 1">
<path d="M6.13593 5.89796L73.8641 5.89796L73.8641 50.8474L6.13593 50.8474L6.13593 5.89796Z" fill="#ffffff" fill-rule="nonzero" opacity="1" stroke="#7a67e0" stroke-linecap="butt" stroke-linejoin="round" stroke-width="8.37261" vectornator:layerName="Прямоугольник 1"/>
<path d="M47.8592 16.3733C48.3355 16.6815 48.7628 17.1088 49.1411 17.6551C49.5193 18.2015 49.7084 18.8809 49.7084 19.6935C49.7084 20.1418 49.6664 20.5971 49.5824 21.0594C49.4983 21.5217 49.3582 21.977 49.1621 22.4253L40.4203 42.2204C40.028 42.2484 39.6568 42.2624 39.3065 42.2624C38.9563 42.2624 38.6271 42.2624 38.3189 42.2624C37.058 42.2624 36.0354 42.0243 35.2508 41.548C34.4663 41.0716 34.0741 40.2451 34.0741 39.0683C34.0741 38.4799 34.2142 37.8425 34.4943 37.1561C34.7745 36.4696 35.1528 35.6501 35.6291 34.6974L41.7652 22.1311L31.4683 22.1311C31.3002 21.8229 31.1321 21.4166 30.964 20.9123C30.7959 20.4079 30.7118 19.8756 30.7118 19.3152C30.7118 18.2505 30.95 17.494 31.4263 17.0457C31.9026 16.5974 32.505 16.3733 33.2335 16.3733L47.8592 16.3733Z" fill="#7a67e0" opacity="1" stroke="none" vectornator:layerName="Текст 1"/>
</g>
</svg>
