<?xml version="1.0" encoding="UTF-8" standalone="no"?>
<!DOCTYPE svg PUBLIC "-//W3C//DTD SVG 1.1//EN" "http://www.w3.org/Graphics/SVG/1.1/DTD/svg11.dtd">
<!-- Created with Vectornator (http://vectornator.io/) -->
<svg height="100%" stroke-miterlimit="10" style="fill-rule:nonzero;clip-rule:evenodd;stroke-linecap:round;stroke-linejoin:round;" version="1.1" viewBox="0 0 80 57.2562" width="100%" xml:space="preserve" xmlns="http://www.w3.org/2000/svg" xmlns:vectornator="http://vectornator.io" xmlns:xlink="http://www.w3.org/1999/xlink">
<defs/>
<g id="Слой-1" vectornator:layerName="Слой 1">
<path d="M6.13593 5.89796L73.8641 5.89796L73.8641 50.8474L6.13593 50.8474L6.13593 5.89796Z" fill="#ffffff" fill-rule="nonzero" opacity="1" stroke="#7a67e0" stroke-linecap="butt" stroke-linejoin="round" stroke-width="8.37261" vectornator:layerName="Прямоугольник 1"/>
<path d="M39.5377 42.5987C38.2488 42.5987 37.0791 42.5006 36.0284 42.3045C34.9777 42.1083 34.0741 41.8141 33.3176 41.4219C32.5611 41.0296 31.9727 40.5463 31.5524 39.9719C31.1321 39.3975 30.922 38.7321 30.922 37.9756C30.922 37.1911 31.1461 36.5326 31.5944 36.0003C32.0427 35.4679 32.5471 35.0477 33.1074 34.7394C33.8919 35.3278 34.7325 35.8392 35.6291 36.2735C36.5257 36.7078 37.6604 36.9249 39.0334 36.9249C40.3502 36.9249 41.2889 36.6307 41.8492 36.0423C42.4096 35.4539 42.6898 34.7394 42.6898 33.8989C42.6898 33.0864 42.4446 32.4139 41.9543 31.8816C41.464 31.3492 40.6164 31.083 39.4116 31.083C38.6551 31.083 38.0247 31.1671 37.5204 31.3352C37.016 31.5033 36.4416 31.7415 35.7972 32.0497C34.4243 31.9936 33.3386 31.6224 32.5401 30.9359C31.7415 30.2495 31.3423 29.1918 31.3423 27.7628C31.3423 27.6788 31.3423 27.5737 31.3423 27.4476C31.3423 27.3215 31.3563 27.0624 31.3843 26.6701L31.8886 20.2819C31.9727 19.0771 32.3509 18.1244 33.0234 17.424C33.6958 16.7235 34.6344 16.3733 35.8392 16.3733L47.9433 16.3733C48.1114 16.6815 48.2795 17.0877 48.4476 17.5921C48.6157 18.0964 48.6998 18.6288 48.6998 19.1891C48.6998 20.2538 48.4616 21.0103 47.9853 21.4586C47.509 21.9069 46.9066 22.1311 46.1781 22.1311L38.1087 22.1311L37.8145 26.0817C38.3469 25.9416 38.8863 25.8155 39.4326 25.7035C39.979 25.5914 40.6724 25.5353 41.513 25.5353C42.97 25.5353 44.2308 25.7525 45.2955 26.1868C46.3602 26.6211 47.2358 27.2165 47.9223 27.973C48.6087 28.7295 49.113 29.612 49.4353 30.6207C49.7575 31.6294 49.9186 32.7081 49.9186 33.8569C49.9186 35.0056 49.7225 36.1124 49.3302 37.1771C48.9379 38.2418 48.3215 39.1734 47.481 39.9719C46.6404 40.7704 45.5687 41.4079 44.2658 41.8842C42.963 42.3605 41.3869 42.5987 39.5377 42.5987Z" fill="#7a67e0" opacity="1" stroke="none" vectornator:layerName="Текст 1"/>
</g>
</svg>
